# Blender 5.1.2
# www.blender.org
mtllib wheel.mtl
o wheel
v -0.005000 -0.042500 0.050000
v -0.005000 -0.037500 0.050000
v -0.005000 -0.042500 -0.050000
v -0.005000 -0.037500 -0.050000
v 0.005000 -0.042500 0.050000
v 0.005000 -0.037500 0.050000
v 0.005000 -0.042500 -0.050000
v 0.005000 -0.037500 -0.050000
v 0.000000 -0.040000 -0.087528
v 0.000000 0.040000 -0.087528
v 0.061892 -0.040000 -0.061892
v 0.061892 0.040000 -0.061892
v 0.087528 -0.040000 0.000000
v 0.087528 0.040000 0.000000
v 0.061892 -0.040000 0.061892
v 0.061892 0.040000 0.061892
v 0.000000 -0.040000 0.087528
v 0.000000 0.040000 0.087528
v -0.061892 -0.040000 0.061892
v -0.061892 0.040000 0.061892
v -0.087528 -0.040000 0.000000
v -0.087528 0.040000 0.000000
v -0.061892 -0.040000 -0.061892
v -0.061892 0.040000 -0.061892
v 0.084853 0.040000 -0.084853
v 0.000000 0.040000 -0.120000
v 0.120000 0.040000 0.000000
v 0.084853 0.040000 0.084853
v 0.000000 0.040000 0.120000
v -0.084853 0.040000 0.084853
v -0.120000 0.040000 0.000000
v -0.084853 0.040000 -0.084853
v 0.000000 -0.040000 -0.120000
v 0.084853 -0.040000 -0.084853
v 0.120000 -0.040000 0.000000
v 0.084853 -0.040000 0.084853
v 0.000000 -0.040000 0.120000
v -0.084853 -0.040000 0.084853
v -0.120000 -0.040000 0.000000
v -0.084853 -0.040000 -0.084853
v -0.005000 0.037913 0.050000
v -0.005000 0.042913 0.050000
v -0.005000 0.037913 -0.050000
v -0.005000 0.042913 -0.050000
v 0.005000 0.037913 0.050000
v 0.005000 0.042913 0.050000
v 0.005000 0.037913 -0.050000
v 0.005000 0.042913 -0.050000
v 0.050000 0.037500 0.005000
v 0.050000 0.042500 0.005000
v -0.050000 0.037500 0.005000
v -0.050000 0.042500 0.005000
v 0.050000 0.037500 -0.005000
v 0.050000 0.042500 -0.005000
v -0.050000 0.037500 -0.005000
v -0.050000 0.042500 -0.005000
v 0.050000 -0.042500 0.005000
v 0.050000 -0.037500 0.005000
v -0.050000 -0.042500 0.005000
v -0.050000 -0.037500 0.005000
v 0.050000 -0.042500 -0.005000
v 0.050000 -0.037500 -0.005000
v -0.050000 -0.042500 -0.005000
v -0.050000 -0.037500 -0.005000
vn -1.0000 -0.0000 -0.0000
vn -0.0000 -0.0000 -1.0000
vn 1.0000 -0.0000 -0.0000
vn -0.0000 -0.0000 1.0000
vn -0.0000 -1.0000 -0.0000
vn -0.0000 1.0000 -0.0000
vn 0.3827 -0.0000 -0.9239
vn 0.9239 -0.0000 -0.3827
vn 0.9239 -0.0000 0.3827
vn 0.3827 -0.0000 0.9239
vn -0.3827 -0.0000 0.9239
vn -0.9239 -0.0000 0.3827
vn -0.9239 -0.0000 -0.3827
vn -0.3827 -0.0000 -0.9239
vt 0.375000 0.000000
vt 0.625000 0.000000
vt 0.625000 0.250000
vt 0.375000 0.250000
vt 0.625000 0.500000
vt 0.375000 0.500000
vt 0.625000 0.750000
vt 0.375000 0.750000
vt 0.625000 1.000000
vt 0.375000 1.000000
vt 0.125000 0.500000
vt 0.125000 0.750000
vt 0.875000 0.500000
vt 0.875000 0.750000
vt 1.000000 0.500000
vt 1.000000 1.000000
vt 0.875000 1.000000
vt 0.750000 1.000000
vt 0.750000 0.500000
vt 0.500000 1.000000
vt 0.500000 0.500000
vt 0.250000 1.000000
vt 0.250000 0.500000
vt 0.373784 0.373784
vt 0.250000 0.425056
vt 0.126216 0.373784
vt 0.074944 0.250000
vt 0.126216 0.126216
vt 0.250000 0.074944
vt 0.373784 0.126216
vt 0.425057 0.250000
vt 0.125000 1.000000
vt 0.000000 1.000000
vt 0.000000 0.500000
vt 0.750000 0.425056
vt 0.873784 0.373784
vt 0.925056 0.250000
vt 0.873784 0.126216
vt 0.750000 0.074944
vt 0.626216 0.126216
vt 0.574944 0.250000
vt 0.626216 0.373784
vt 0.419706 0.419706
vt 0.250000 0.490000
vt 0.490000 0.250000
vt 0.419706 0.080294
vt 0.250000 0.010000
vt 0.080294 0.080294
vt 0.010000 0.250000
vt 0.080294 0.419706
vt 0.750000 0.490000
vt 0.919706 0.419706
vt 0.990000 0.250000
vt 0.919706 0.080294
vt 0.750000 0.010000
vt 0.580294 0.080294
vt 0.510000 0.250000
vt 0.580294 0.419706
s 0
usemtl Material.003
f 1/1/1 2/2/1 4/3/1 3/4/1
f 3/4/2 4/3/2 8/5/2 7/6/2
f 7/6/3 8/5/3 6/7/3 5/8/3
f 5/8/4 6/7/4 2/9/4 1/10/4
f 3/11/5 7/6/5 5/8/5 1/12/5
f 8/5/6 4/13/6 2/14/6 6/7/6
f 41/1/1 42/2/1 44/3/1 43/4/1
f 43/4/2 44/3/2 48/5/2 47/6/2
f 47/6/3 48/5/3 46/7/3 45/8/3
f 45/8/4 46/7/4 42/9/4 41/10/4
f 43/11/5 47/6/5 45/8/5 41/12/5
f 48/5/6 44/13/6 42/14/6 46/7/6
f 49/1/4 50/2/4 52/3/4 51/4/4
f 51/4/1 52/3/1 56/5/1 55/6/1
f 55/6/2 56/5/2 54/7/2 53/8/2
f 53/8/3 54/7/3 50/9/3 49/10/3
f 51/11/5 55/6/5 53/8/5 49/12/5
f 56/5/6 52/13/6 50/14/6 54/7/6
f 57/1/4 58/2/4 60/3/4 59/4/4
f 59/4/1 60/3/1 64/5/1 63/6/1
f 63/6/2 64/5/2 62/7/2 61/8/2
f 61/8/3 62/7/3 58/9/3 57/10/3
f 59/11/5 63/6/5 61/8/5 57/12/5
f 64/5/6 60/13/6 58/14/6 62/7/6
usemtl Material.001
f 33/15/7 26/16/7 25/17/7 34/13/7
f 34/13/8 25/17/8 27/18/8 35/19/8
f 35/19/9 27/18/9 28/9/9 36/5/9
f 36/5/10 28/9/10 29/20/10 37/21/10
f 37/21/11 29/20/11 30/10/11 38/6/11
f 38/6/12 30/10/12 31/22/12 39/23/12
f 39/23/13 31/22/13 32/32/13 40/11/13
f 40/11/14 32/32/14 26/33/14 33/34/14
f 10/25/6 12/24/6 25/43/6 26/44/6
f 12/24/6 14/31/6 27/45/6 25/43/6
f 14/31/6 16/30/6 28/46/6 27/45/6
f 16/30/6 18/29/6 29/47/6 28/46/6
f 18/29/6 20/28/6 30/48/6 29/47/6
f 20/28/6 22/27/6 31/49/6 30/48/6
f 22/27/6 24/26/6 32/50/6 31/49/6
f 24/26/6 10/25/6 26/44/6 32/50/6
f 11/36/5 9/35/5 33/51/5 34/52/5
f 13/37/5 11/36/5 34/52/5 35/53/5
f 15/38/5 13/37/5 35/53/5 36/54/5
f 17/39/5 15/38/5 36/54/5 37/55/5
f 19/40/5 17/39/5 37/55/5 38/56/5
f 21/41/5 19/40/5 38/56/5 39/57/5
f 23/42/5 21/41/5 39/57/5 40/58/5
f 9/35/5 23/42/5 40/58/5 33/51/5
usemtl Material.002
f 12/24/6 10/25/6 24/26/6 22/27/6 20/28/6 18/29/6 16/30/6 14/31/6
f 9/35/5 11/36/5 13/37/5 15/38/5 17/39/5 19/40/5 21/41/5 23/42/5
